. 
  
http://www.torrenting.com/        :     Greatest Movie Tracker on The Net!!!
 
http://www.Torrenting.com          :     Once & For all ;)


               www . Torrenting . Com 

(((((((((((((= Enjoy No RAR releases =))))))))))))))))))))


...................................NFO:....................................

.[img]http://img840.imageshack.us/img840/4631/42072258.jpg[/img]

[color=blue][size=5][b]Animals.United.2011.Real.BDRip.XVID.AC3.HQ.Hive-CM8[/b][/size][/color]


[b]Thx Hive

CM8 Doing It Right The First Time :D


Sources
Video: Real Full German Bluray (not the crappy russian one)
Audio: UK Retail

Video: 720x304 @bitrate 2200 2pass
Audio: English AC3 5.1 @448
Sample: yes included

Encode:
Imagine took a german tagged video which is really the old russian video with dubbed german audio, surely by mistake.
The Real German Bluray has a very good quality unlike the russian one.
Here is a quick comparison between the russian and the german bluray 1:1
[url]http://screenshotcomparison.com/comparison/46064[/url]

The Intro and language at the introduction is also different
The russian bluray begins with "constantin film presents Animals united" 
The German bluray begins with "constantin film psentiert Konferenz der Tiere" 

anyway, new video, far better quality
looks amazing now

enjoy[/b]


[url]http://www.imdb.com/title/tt1620449/[/url]


General
Complete name                    : Animals.United.2011.Real.BDRip.XVID.AC3.HQ.Hive-CM8.avi
Format                           : AVI
Format/Info                      : Audio Video Interleave
File size                        : 1.73 GiB
Duration                         : 1h 33mn
Overall bit rate                 : 2 656 Kbps
Writing application              : Nandub v1.0rc2
Writing library                  : Nandub build 1853/release

Video
ID                               : 0
Format                           : MPEG-4 Visual
Format profile                   : Advanced Simple@L5
Format settings, BVOP            : Yes
Format settings, QPel            : Yes
Format settings, GMC             : No warppoints
Format settings, Matrix          : Default (H.263)
Muxing mode                      : Packed bitstream
Codec ID                         : XVID
Codec ID/Hint                    : XviD
Duration                         : 1h 33mn
Bit rate                         : 2 199 Kbps
Width                            : 720 pixels
Height                           : 304 pixels
Display aspect ratio             : 2.35:1
Frame rate                       : 23.976 fps
Color space                      : YUV
Chroma subsampling               : 4:2:0
Bit depth                        : 8 bits
Scan type                        : Progressive
Bits/(Pixel*Frame)               : 0.419
Stream size                      : 1.43 GiB (83%)
Writing library                  : XviD 1.2.1 (UTC 2008-12-04)

Audio
ID                               : 1
Format                           : AC-3
Format/Info                      : Audio Coding 3
Mode extension                   : CM (complete main)
Codec ID                         : 2000
Duration                         : 1h 33mn
Bit rate mode                    : Constant
Bit rate                         : 448 Kbps
Channel(s)                       : 6 channels
Channel positions                : Front: L C R, Side: L R, LFE
Sampling rate                    : 48.0 KHz
Bit depth                        : 16 bits
Video delay                      : 22ms
Stream size                      : 299 MiB (17%)
Alignment                        : Split accross interleaves
Interleave, duration             : 42 ms (1.00 video frame)
Interleave, preload duration     : 500 ms



Billy Beach	 ... 	Vulture 2 (voice: English version)
Jim Broadbent	... 	Winston (voice: English version)
James Corden	... 	Billy (voice: English version)
Nicola Devico Mamone	... 	Bffel Chino (voice) (as Nico Mamone)
Marc Diraison	... 	Cook (voice: English version)
Omid Djalili	... 	Bongo (voice: English version)
Jason Donovan	... 	Toby (voice: English version)
Dawn French	... 	Angie (voice: English version)
Thomas Fritsch	... 	Lwe Sokrates (voice)
Stephen Fry	... 	Socrates (voice: English version)


A group of animals waiting for the annual flood they rely on for food and water 
discover that the humans, who have been destroying their habitats have built a dam 
for a leisure resort. The animals endeavor to save the delta and send a message to 
the humans not to interfere with nature.


[img]http://img13.imageshack.us/img13/3285/35655712.png[/img]
[img]http://img709.imageshack.us/img709/705/1111aiy.png[/img]
[img]http://img687.imageshack.us/img687/3752/11111io.png[/img]
[img]http://img854.imageshack.us/img854/9172/111111x.png[/img]
[img]http://img855.imageshack.us/img855/6262/1111111a.png[/img]
[img]http://img69.imageshack.us/img69/9370/11111111w.png[/img]
[img]http://img717.imageshack.us/img717/4315/111byz.png[/img]
[img]http://img13.imageshack.us/img13/7578/111111111ks.png[/img]
[img]http://img29.imageshack.us/img29/1436/1111111111b.png[/img]
[img]http://img13.imageshack.us/img13/5486/11111111111g.png[/img]
[img]http://img819.imageshack.us/img819/7114/111111111111x.png[/img]
[img]http://img34.imageshack.us/img34/8494/24283559.png[/img]





Greetz

ViSiON,LUSi,SANTi,MAGNET,THC,T0XiCiNK,LKRG,IMAGiNE,WBZ,FLAWL3SS,NOVA
Vik,Rapeseed,D2U,SAFC,goldadvance,MEMORY100,KaN1vE,Unevano,Pinnz,Wayne,Mr Hive
and all P2P groups 
Great Work Guys :D

CM8@hushmail.com